<svg width="12" height="12" viewBox="0 0 12 12" fill="none" xmlns="http://www.w3.org/2000/svg">
<path fill-rule="evenodd" clip-rule="evenodd" d="M6.68579 7.53841C6.09612 7.96309 5.37332 8.21294 4.59312 8.21294C2.61143 8.21294 1 6.60101 1 4.60647C1 2.61193 2.61143 1 4.59312 1C6.57482 1 8.18625 2.61193 8.18625 4.60647C8.18625 5.60297 7.78401 6.50396 7.13433 7.15614L7.09987 7.12144L6.68579 7.53841ZM7.05541 8.49579C6.34378 8.94989 5.49908 9.21294 4.59312 9.21294C2.05641 9.21294 0 7.15055 0 4.60647C0 2.06239 2.05641 0 4.59312 0C7.12984 0 9.18625 2.06239 9.18625 4.60647C9.18625 5.87951 8.67134 7.03194 7.83899 7.86571L10.7471 10.7941L10.0425 11.5037L7.05541 8.49579Z" fill="#4496F6"/>
</svg>
