<svg width="116" height="28" viewBox="0 0 116 28" fill="none" xmlns="http://www.w3.org/2000/svg">
<path d="M31.774 17.6499H29.837L28.004 14.4909H26.639V17.6499H24.845V8.5499H28.485C29.3257 8.5499 30.0407 8.84457 30.63 9.4339C31.2193 10.0232 31.514 10.7339 31.514 11.5659C31.514 12.1292 31.3537 12.6536 31.033 13.1389C30.7123 13.6156 30.2877 13.9752 29.759 14.2179L31.774 17.6499ZM28.485 10.2269H26.639V12.9179H28.485C28.823 12.9179 29.1133 12.7879 29.356 12.5279C29.5987 12.2592 29.72 11.9386 29.72 11.5659C29.72 11.1932 29.5987 10.8769 29.356 10.6169C29.1133 10.3569 28.823 10.2269 28.485 10.2269ZM38.7403 15.0889H33.8393C34.0559 15.9036 34.6669 16.3109 35.6723 16.3109C36.3136 16.3109 36.7989 16.0942 37.1283 15.6609L38.4803 16.4409C37.8389 17.3682 36.8943 17.8319 35.6463 17.8319C34.5716 17.8319 33.7093 17.5069 33.0593 16.8569C32.4093 16.2069 32.0843 15.3879 32.0843 14.3999C32.0843 13.4292 32.4049 12.6146 33.0463 11.9559C33.6789 11.2972 34.5023 10.9679 35.5163 10.9679C36.4783 10.9679 37.2626 11.2972 37.8693 11.9559C38.4933 12.6146 38.8053 13.4292 38.8053 14.3999C38.8053 14.5819 38.7836 14.8116 38.7403 15.0889ZM33.8133 13.7889H37.1283C37.0329 13.3642 36.8379 13.0392 36.5433 12.8139C36.2573 12.5886 35.9149 12.4759 35.5163 12.4759C35.0656 12.4759 34.6929 12.5929 34.3983 12.8269C34.1036 13.0522 33.9086 13.3729 33.8133 13.7889ZM47.165 10.9679C47.9103 10.9679 48.504 11.2106 48.946 11.6959C49.3967 12.1812 49.622 12.8312 49.622 13.6459V17.6499H47.945V13.7629C47.945 13.3729 47.8497 13.0696 47.659 12.8529C47.4683 12.6362 47.1997 12.5279 46.853 12.5279C46.4717 12.5279 46.1727 12.6536 45.956 12.9049C45.748 13.1562 45.644 13.5202 45.644 13.9969V17.6499H43.967V13.7629C43.967 13.3729 43.8717 13.0696 43.681 12.8529C43.4903 12.6362 43.2217 12.5279 42.875 12.5279C42.5023 12.5279 42.2033 12.6579 41.978 12.9179C41.7613 13.1692 41.653 13.5289 41.653 13.9969V17.6499H39.976V11.1499H41.653V11.8389C42.043 11.2582 42.6453 10.9679 43.46 10.9679C44.266 10.9679 44.8553 11.2799 45.228 11.9039C45.6527 11.2799 46.2983 10.9679 47.165 10.9679ZM52.7233 11.1499V12.2679C52.8706 11.8606 53.122 11.5529 53.4773 11.3449C53.8326 11.1282 54.24 11.0199 54.6993 11.0199V12.8919C54.188 12.8226 53.7286 12.9266 53.3213 13.2039C52.9226 13.4726 52.7233 13.9189 52.7233 14.5429V17.6499H51.0463V11.1499H52.7233ZM60.3789 11.9169V11.1499H62.0559V17.6499H60.3789V16.8829C59.8762 17.5156 59.1699 17.8319 58.2599 17.8319C57.3932 17.8319 56.6479 17.5026 56.0239 16.8439C55.4085 16.1766 55.1009 15.3619 55.1009 14.3999C55.1009 13.4466 55.4085 12.6362 56.0239 11.9689C56.6479 11.3016 57.3932 10.9679 58.2599 10.9679C59.1699 10.9679 59.8762 11.2842 60.3789 11.9169ZM57.2849 15.7259C57.6229 16.0639 58.0519 16.2329 58.5719 16.2329C59.0919 16.2329 59.5209 16.0639 59.8589 15.7259C60.2055 15.3792 60.3789 14.9372 60.3789 14.3999C60.3789 13.8626 60.2055 13.4249 59.8589 13.0869C59.5209 12.7402 59.0919 12.5669 58.5719 12.5669C58.0519 12.5669 57.6229 12.7402 57.2849 13.0869C56.9469 13.4249 56.7779 13.8626 56.7779 14.3999C56.7779 14.9372 56.9469 15.3792 57.2849 15.7259ZM67.2946 11.1499V12.7619H65.8256V15.4659C65.8256 15.6912 65.8819 15.8559 65.9946 15.9599C66.1072 16.0639 66.2719 16.1246 66.4886 16.1419C66.7052 16.1506 66.9739 16.1462 67.2946 16.1289V17.6499C66.1592 17.7799 65.3489 17.6759 64.8636 17.3379C64.3869 16.9912 64.1486 16.3672 64.1486 15.4659V12.7619H63.0176V11.1499H64.1486V9.8369L65.8256 9.3299V11.1499H67.2946ZM69.309 10.3699C69.0316 10.3699 68.789 10.2702 68.581 10.0709C68.3816 9.8629 68.282 9.62023 68.282 9.3429C68.282 9.06557 68.3816 8.8229 68.581 8.6149C68.789 8.4069 69.0316 8.3029 69.309 8.3029C69.595 8.3029 69.8376 8.4069 70.037 8.6149C70.245 8.8229 70.349 9.06557 70.349 9.3429C70.349 9.62023 70.245 9.8629 70.037 10.0709C69.8376 10.2702 69.595 10.3699 69.309 10.3699ZM70.154 17.6499H68.477V11.1499H70.154V17.6499ZM75.3029 10.9679C76.0222 10.9679 76.6072 11.2062 77.0579 11.6829C77.5259 12.1682 77.7599 12.8269 77.7599 13.6589V17.6499H76.0829V13.8669C76.0829 13.4422 75.9659 13.1129 75.7319 12.8789C75.5065 12.6449 75.1945 12.5279 74.7959 12.5279C74.3539 12.5279 74.0029 12.6666 73.7429 12.9439C73.4915 13.2126 73.3659 13.6112 73.3659 14.1399V17.6499H71.6889V11.1499H73.3659V11.8779C73.7645 11.2712 74.4102 10.9679 75.3029 10.9679ZM84.1708 11.9559V11.1499H85.8088V17.3379C85.8088 18.3346 85.4751 19.1016 84.8078 19.6389C84.1491 20.1676 83.3518 20.4319 82.4158 20.4319C80.9425 20.4319 79.9155 19.9032 79.3348 18.8459L80.7648 18.0269C81.0855 18.6336 81.6531 18.9369 82.4678 18.9369C82.9965 18.9369 83.4125 18.7982 83.7158 18.5209C84.0191 18.2436 84.1708 17.8492 84.1708 17.3379V16.6359C83.6768 17.2946 82.9835 17.6239 82.0908 17.6239C81.1721 17.6239 80.4008 17.3032 79.7768 16.6619C79.1615 16.0032 78.8538 15.2146 78.8538 14.2959C78.8538 13.3772 79.1658 12.5929 79.7898 11.9429C80.4138 11.2929 81.1808 10.9679 82.0908 10.9679C82.9835 10.9679 83.6768 11.2972 84.1708 11.9559ZM83.6508 15.5829C83.9975 15.2449 84.1708 14.8159 84.1708 14.2959C84.1708 13.7759 83.9975 13.3556 83.6508 13.0349C83.3128 12.6969 82.8795 12.5279 82.3508 12.5279C81.8308 12.5279 81.3931 12.6969 81.0378 13.0349C80.6998 13.3556 80.5308 13.7759 80.5308 14.2959C80.5308 14.8159 80.6998 15.2449 81.0378 15.5829C81.3845 15.9122 81.8221 16.0769 82.3508 16.0769C82.8795 16.0769 83.3128 15.9122 83.6508 15.5829ZM92.2825 14.5299H87.4075V12.9179H92.2825V14.5299ZM95.44 12.9959C95.44 13.2732 95.8343 13.5116 96.623 13.7109C96.9003 13.7716 97.1516 13.8452 97.377 13.9319C97.6023 14.0099 97.8276 14.1269 98.053 14.2829C98.287 14.4302 98.469 14.6296 98.599 14.8809C98.729 15.1322 98.794 15.4226 98.794 15.7519C98.794 16.4192 98.5426 16.9349 98.04 17.2989C97.5373 17.6542 96.9176 17.8319 96.181 17.8319C94.8463 17.8319 93.9363 17.3162 93.451 16.2849L94.907 15.4659C95.1063 16.0292 95.531 16.3109 96.181 16.3109C96.779 16.3109 97.078 16.1246 97.078 15.7519C97.078 15.4746 96.6836 15.2362 95.895 15.0369C95.6003 14.9589 95.349 14.8809 95.141 14.8029C94.933 14.7249 94.7076 14.6122 94.465 14.4649C94.2223 14.3089 94.036 14.1139 93.906 13.8799C93.7846 13.6372 93.724 13.3556 93.724 13.0349C93.724 12.3936 93.958 11.8909 94.426 11.5269C94.9026 11.1542 95.492 10.9679 96.194 10.9679C96.7226 10.9679 97.2036 11.0892 97.637 11.3319C98.0703 11.5659 98.4126 11.9039 98.664 12.3459L97.234 13.1259C97.026 12.6839 96.6793 12.4629 96.194 12.4629C95.9773 12.4629 95.7953 12.5149 95.648 12.6189C95.5093 12.7142 95.44 12.8399 95.44 12.9959ZM103.719 10.9679C104.594 10.9679 105.34 11.3016 105.955 11.9689C106.579 12.6362 106.891 13.4466 106.891 14.3999C106.891 15.3706 106.579 16.1852 105.955 16.8439C105.348 17.5026 104.603 17.8319 103.719 17.8319C102.809 17.8319 102.107 17.5156 101.613 16.8829V20.2499H99.9359V11.1499H101.613V11.9169C102.107 11.2842 102.809 10.9679 103.719 10.9679ZM102.12 15.7259C102.458 16.0639 102.887 16.2329 103.407 16.2329C103.927 16.2329 104.356 16.0639 104.694 15.7259C105.041 15.3792 105.214 14.9372 105.214 14.3999C105.214 13.8626 105.041 13.4249 104.694 13.0869C104.356 12.7402 103.927 12.5669 103.407 12.5669C102.887 12.5669 102.458 12.7402 102.12 13.0869C101.782 13.4249 101.613 13.8626 101.613 14.3999C101.613 14.9372 101.782 15.3792 102.12 15.7259ZM111.857 10.9679C112.732 10.9679 113.477 11.3016 114.093 11.9689C114.717 12.6362 115.029 13.4466 115.029 14.3999C115.029 15.3706 114.717 16.1852 114.093 16.8439C113.486 17.5026 112.741 17.8319 111.857 17.8319C110.947 17.8319 110.245 17.5156 109.751 16.8829V17.6499H108.074V8.5499H109.751V11.9169C110.245 11.2842 110.947 10.9679 111.857 10.9679ZM110.258 15.7259C110.596 16.0639 111.025 16.2329 111.545 16.2329C112.065 16.2329 112.494 16.0639 112.832 15.7259C113.178 15.3792 113.352 14.9372 113.352 14.3999C113.352 13.8626 113.178 13.4249 112.832 13.0869C112.494 12.7402 112.065 12.5669 111.545 12.5669C111.025 12.5669 110.596 12.7402 110.258 13.0869C109.92 13.4249 109.751 13.8626 109.751 14.3999C109.751 14.9372 109.92 15.3792 110.258 15.7259Z" fill="#161616"/>
<g clip-path="url(#clip0)">
<path d="M3.30474 18.2812V12.1573L13.4492 4.32449L16.2438 6.48674L19.0474 4.32449L13.4492 0L0 10.3816V18.2812H3.30474Z" fill="#4496F6"/>
<path d="M14.2574 18.2812V12.1573L24.4018 4.32449H30L24.4018 0L10.9526 10.3816V18.2812H14.2574Z" fill="#4496F6"/>
</g>
<path d="M0.4 22.1499H1.65C1.96333 22.1499 2.225 22.2549 2.435 22.4649C2.645 22.6749 2.75 22.9366 2.75 23.2499C2.75 23.5632 2.645 23.8249 2.435 24.0349C2.225 24.2449 1.96333 24.3499 1.65 24.3499H0.75V25.6499H0.4V22.1499ZM0.75 24.0199H1.65C1.86667 24.0199 2.045 23.9482 2.185 23.8049C2.32833 23.6616 2.4 23.4766 2.4 23.2499C2.4 23.0266 2.32833 22.8432 2.185 22.6999C2.045 22.5532 1.86667 22.4799 1.65 22.4799H0.75V24.0199ZM4.25402 23.0899C4.62736 23.0899 4.92569 23.2216 5.14902 23.4849C5.37902 23.7449 5.49402 24.0532 5.49402 24.4099C5.49402 24.4266 5.49069 24.4782 5.48402 24.5649H3.28902C3.32236 24.8149 3.42902 25.0149 3.60902 25.1649C3.78902 25.3149 4.01402 25.3899 4.28402 25.3899C4.66402 25.3899 4.93236 25.2482 5.08902 24.9649L5.37902 25.1349C5.26902 25.3149 5.11736 25.4566 4.92402 25.5599C4.73402 25.6599 4.51902 25.7099 4.27902 25.7099C3.88569 25.7099 3.56569 25.5866 3.31902 25.3399C3.07236 25.0932 2.94902 24.7799 2.94902 24.3999C2.94902 24.0232 3.07069 23.7116 3.31402 23.4649C3.55736 23.2149 3.87069 23.0899 4.25402 23.0899ZM4.25402 23.4099C3.99402 23.4099 3.77569 23.4866 3.59902 23.6399C3.42569 23.7932 3.32236 23.9949 3.28902 24.2449H5.15402C5.11736 23.9782 5.01569 23.7732 4.84902 23.6299C4.67569 23.4832 4.47736 23.4099 4.25402 23.4099ZM7.71895 22.7499H6.41895V22.4599H7.71895V22.7499ZM6.34895 25.0749L7.83895 23.1499H8.11895V25.6499H7.78895V23.7249L6.29895 25.6499H6.01895V23.1499H6.34895V25.0749ZM8.5168 23.1499H10.6168V23.4699H9.7318V25.6499H9.4018V23.4699H8.5168V23.1499ZM11.3489 25.0749L12.8389 23.1499H13.1189V25.6499H12.7889V23.7249L11.2989 25.6499H11.0189V23.1499H11.3489V25.0749ZM15.5868 24.2399V23.1499H15.9168V25.6499H15.5868V24.5599H14.1468V25.6499H13.8168V23.1499H14.1468V24.2399H15.5868ZM16.6146 23.1499H18.2146V23.4699H16.9446V25.6499H16.6146V23.1499ZM21.2066 23.0899C21.5633 23.0899 21.8666 23.2166 22.1166 23.4699C22.3699 23.7232 22.4966 24.0332 22.4966 24.3999C22.4966 24.7666 22.3699 25.0766 22.1166 25.3299C21.8666 25.5832 21.5633 25.7099 21.2066 25.7099C20.7633 25.7099 20.4266 25.5266 20.1966 25.1599V26.6499H19.8666V23.1499H20.1966V23.6399C20.4266 23.2732 20.7633 23.0899 21.2066 23.0899ZM20.4816 25.1049C20.6716 25.2949 20.9049 25.3899 21.1816 25.3899C21.4583 25.3899 21.6916 25.2949 21.8816 25.1049C22.0716 24.9082 22.1666 24.6732 22.1666 24.3999C22.1666 24.1232 22.0716 23.8899 21.8816 23.6999C21.6916 23.5066 21.4583 23.4099 21.1816 23.4099C20.9049 23.4099 20.6716 23.5066 20.4816 23.6999C20.2916 23.8899 20.1966 24.1232 20.1966 24.3999C20.1966 24.6732 20.2916 24.9082 20.4816 25.1049ZM24.2003 23.0899C24.5736 23.0899 24.872 23.2216 25.0953 23.4849C25.3253 23.7449 25.4403 24.0532 25.4403 24.4099C25.4403 24.4266 25.437 24.4782 25.4303 24.5649H23.2353C23.2686 24.8149 23.3753 25.0149 23.5553 25.1649C23.7353 25.3149 23.9603 25.3899 24.2303 25.3899C24.6103 25.3899 24.8786 25.2482 25.0353 24.9649L25.3253 25.1349C25.2153 25.3149 25.0636 25.4566 24.8703 25.5599C24.6803 25.6599 24.4653 25.7099 24.2253 25.7099C23.832 25.7099 23.512 25.5866 23.2653 25.3399C23.0186 25.0932 22.8953 24.7799 22.8953 24.3999C22.8953 24.0232 23.017 23.7116 23.2603 23.4649C23.5036 23.2149 23.817 23.0899 24.2003 23.0899ZM24.2003 23.4099C23.9403 23.4099 23.722 23.4866 23.5453 23.6399C23.372 23.7932 23.2686 23.9949 23.2353 24.2449H25.1003C25.0636 23.9782 24.962 23.7732 24.7953 23.6299C24.622 23.4832 24.4236 23.4099 24.2003 23.4099ZM28.0352 23.1499H28.4152V25.6499H28.0852V23.6549L27.2102 25.0749H27.1702L26.2952 23.6549V25.6499H25.9652V23.1499H26.3452L27.1902 24.5199L28.0352 23.1499ZM31.2096 25.3349C30.953 25.5849 30.643 25.7099 30.2796 25.7099C29.9096 25.7099 29.598 25.5849 29.3446 25.3349C29.0913 25.0816 28.9646 24.7699 28.9646 24.3999C28.9646 24.0299 29.0913 23.7199 29.3446 23.4699C29.598 23.2166 29.9096 23.0899 30.2796 23.0899C30.6463 23.0899 30.9563 23.2166 31.2096 23.4699C31.4663 23.7199 31.5946 24.0299 31.5946 24.3999C31.5946 24.7666 31.4663 25.0782 31.2096 25.3349ZM29.5796 25.1049C29.7696 25.2949 30.003 25.3899 30.2796 25.3899C30.5563 25.3899 30.7896 25.2949 30.9796 25.1049C31.1696 24.9082 31.2646 24.6732 31.2646 24.3999C31.2646 24.1232 31.1696 23.8899 30.9796 23.6999C30.7896 23.5066 30.5563 23.4099 30.2796 23.4099C30.003 23.4099 29.7696 23.5066 29.5796 23.6999C29.3896 23.8899 29.2946 24.1232 29.2946 24.3999C29.2946 24.6732 29.3896 24.9082 29.5796 25.1049ZM33.9169 24.2399V23.1499H34.2469V25.6499H33.9169V24.5599H32.4769V25.6499H32.1469V23.1499H32.4769V24.2399H33.9169ZM34.6447 23.1499H36.7447V23.4699H35.8597V25.6499H35.5297V23.4699H34.6447V23.1499ZM38.9169 24.2399V23.1499H39.2469V25.6499H38.9169V24.5599H37.4769V25.6499H37.1469V23.1499H37.4769V24.2399H38.9169ZM40.2747 24.0999H40.9597C41.1897 24.0999 41.3864 24.1732 41.5497 24.3199C41.7131 24.4632 41.7947 24.6482 41.7947 24.8749C41.7947 25.1049 41.7131 25.2916 41.5497 25.4349C41.3931 25.5782 41.1964 25.6499 40.9597 25.6499H39.9447V23.1499H40.2747V24.0999ZM42.1447 25.6499V23.1499H42.4747V25.6499H42.1447ZM40.2747 25.3299H40.9597C41.1031 25.3299 41.2231 25.2882 41.3197 25.2049C41.4164 25.1182 41.4647 25.0082 41.4647 24.8749C41.4647 24.7416 41.4164 24.6332 41.3197 24.5499C41.2231 24.4632 41.1031 24.4199 40.9597 24.4199H40.2747V25.3299ZM44.3021 24.3549L45.2771 25.6499H44.8821L44.1021 24.6199L43.3221 25.6499H42.9271L43.9071 24.3549L42.9921 23.1499H43.3871L44.1021 24.0949L44.8171 23.1499H45.2121L44.3021 24.3549ZM47.656 24.3499L48.996 25.6499H48.556L47.306 24.4449V25.6499H46.976V23.1499H47.306V24.2549L48.496 23.1499H48.946L47.656 24.3499ZM51.2927 25.3349C51.036 25.5849 50.726 25.7099 50.3627 25.7099C49.9927 25.7099 49.681 25.5849 49.4277 25.3349C49.1743 25.0816 49.0477 24.7699 49.0477 24.3999C49.0477 24.0299 49.1743 23.7199 49.4277 23.4699C49.681 23.2166 49.9927 23.0899 50.3627 23.0899C50.7293 23.0899 51.0393 23.2166 51.2927 23.4699C51.5493 23.7199 51.6777 24.0299 51.6777 24.3999C51.6777 24.7666 51.5493 25.0782 51.2927 25.3349ZM49.6627 25.1049C49.8527 25.2949 50.086 25.3899 50.3627 25.3899C50.6393 25.3899 50.8727 25.2949 51.0627 25.1049C51.2527 24.9082 51.3477 24.6732 51.3477 24.3999C51.3477 24.1232 51.2527 23.8899 51.0627 23.6999C50.8727 23.5066 50.6393 23.4099 50.3627 23.4099C50.086 23.4099 49.8527 23.5066 49.6627 23.6999C49.4727 23.8899 49.3777 24.1232 49.3777 24.3999C49.3777 24.6732 49.4727 24.9082 49.6627 25.1049ZM54.2999 23.1499H54.6799V25.6499H54.3499V23.6549L53.4749 25.0749H53.4349L52.5599 23.6549V25.6499H52.2299V23.1499H52.6099L53.4549 24.5199L54.2999 23.1499ZM55.3793 23.1499H57.4793V25.6499H57.1493V23.4699H55.7093V25.6499H55.3793V23.1499ZM60.3271 23.6399V23.1499H60.6571V25.6499H60.3271V25.1599C60.0971 25.5266 59.7605 25.7099 59.3171 25.7099C58.9605 25.7099 58.6555 25.5832 58.4021 25.3299C58.1521 25.0766 58.0271 24.7666 58.0271 24.3999C58.0271 24.0332 58.1521 23.7232 58.4021 23.4699C58.6555 23.2166 58.9605 23.0899 59.3171 23.0899C59.7605 23.0899 60.0971 23.2732 60.3271 23.6399ZM58.6421 25.1049C58.8321 25.2949 59.0655 25.3899 59.3421 25.3899C59.6188 25.3899 59.8521 25.2949 60.0421 25.1049C60.2321 24.9082 60.3271 24.6732 60.3271 24.3999C60.3271 24.1232 60.2321 23.8899 60.0421 23.6999C59.8521 23.5066 59.6188 23.4099 59.3421 23.4099C59.0655 23.4099 58.8321 23.5066 58.6421 23.6999C58.4521 23.8899 58.3571 24.1232 58.3571 24.3999C58.3571 24.6732 58.4521 24.9082 58.6421 25.1049ZM63.1259 24.2399V23.1499H63.4559V25.6499H63.1259V24.5599H61.6859V25.6499H61.3559V23.1499H61.6859V24.2399H63.1259ZM64.4837 25.0749L65.9737 23.1499H66.2537V25.6499H65.9237V23.7249L64.4337 25.6499H64.1537V23.1499H64.4837V25.0749ZM68.6516 22.7499H67.3516V22.4599H68.6516V22.7499ZM67.2816 25.0749L68.7716 23.1499H69.0516V25.6499H68.7216V23.7249L67.2316 25.6499H66.9516V23.1499H67.2816V25.0749ZM72.6844 25.7099C72.1511 25.7099 71.7127 25.5349 71.3694 25.1849C71.0227 24.8316 70.8494 24.4032 70.8494 23.8999C70.8494 23.3966 71.0227 22.9682 71.3694 22.6149C71.7127 22.2649 72.1511 22.0899 72.6844 22.0899C73.0044 22.0899 73.2994 22.1682 73.5694 22.3249C73.8394 22.4782 74.0494 22.6866 74.1994 22.9499L73.8894 23.1299C73.7794 22.9166 73.6161 22.7466 73.3994 22.6199C73.1827 22.4932 72.9444 22.4299 72.6844 22.4299C72.2444 22.4299 71.8877 22.5716 71.6144 22.8549C71.3377 23.1416 71.1994 23.4899 71.1994 23.8999C71.1994 24.3099 71.3377 24.6582 71.6144 24.9449C71.8877 25.2282 72.2444 25.3699 72.6844 25.3699C72.9444 25.3699 73.1827 25.3066 73.3994 25.1799C73.6161 25.0532 73.7794 24.8832 73.8894 24.6699L74.1994 24.8449C74.0561 25.1082 73.8477 25.3182 73.5744 25.4749C73.3011 25.6316 73.0044 25.7099 72.6844 25.7099ZM76.8506 23.6399V23.1499H77.1806V25.6499H76.8506V25.1599C76.6206 25.5266 76.2839 25.7099 75.8406 25.7099C75.4839 25.7099 75.1789 25.5832 74.9256 25.3299C74.6756 25.0766 74.5506 24.7666 74.5506 24.3999C74.5506 24.0332 74.6756 23.7232 74.9256 23.4699C75.1789 23.2166 75.4839 23.0899 75.8406 23.0899C76.2839 23.0899 76.6206 23.2732 76.8506 23.6399ZM75.1656 25.1049C75.3556 25.2949 75.5889 25.3899 75.8656 25.3899C76.1423 25.3899 76.3756 25.2949 76.5656 25.1049C76.7556 24.9082 76.8506 24.6732 76.8506 24.3999C76.8506 24.1232 76.7556 23.8899 76.5656 23.6999C76.3756 23.5066 76.1423 23.4099 75.8656 23.4099C75.5889 23.4099 75.3556 23.5066 75.1656 23.6999C74.9756 23.8899 74.8806 24.1232 74.8806 24.3999C74.8806 24.6732 74.9756 24.9082 75.1656 25.1049ZM79.6493 24.2399V23.1499H79.9793V25.6499H79.6493V24.5599H78.2093V25.6499H77.8793V23.1499H78.2093V24.2399H79.6493ZM81.3571 24.3499L82.6971 25.6499H82.2571L81.0071 24.4449V25.6499H80.6771V23.1499H81.0071V24.2549L82.1971 23.1499H82.6471L81.3571 24.3499ZM82.8479 23.1499H84.9479V23.4699H84.0629V25.6499H83.7329V23.4699H82.8479V23.1499ZM87.0486 24.2649H85.2486V23.9449H87.0486V24.2649ZM87.8463 22.1499H90.3463V25.6499H89.9963V22.4799H88.1963V25.6499H87.8463V22.1499ZM92.2521 23.0899C92.6254 23.0899 92.9237 23.2216 93.1471 23.4849C93.3771 23.7449 93.4921 24.0532 93.4921 24.4099C93.4921 24.4266 93.4887 24.4782 93.4821 24.5649H91.2871C91.3204 24.8149 91.4271 25.0149 91.6071 25.1649C91.7871 25.3149 92.0121 25.3899 92.2821 25.3899C92.6621 25.3899 92.9304 25.2482 93.0871 24.9649L93.3771 25.1349C93.2671 25.3149 93.1154 25.4566 92.9221 25.5599C92.7321 25.6599 92.5171 25.7099 92.2771 25.7099C91.8837 25.7099 91.5637 25.5866 91.3171 25.3399C91.0704 25.0932 90.9471 24.7799 90.9471 24.3999C90.9471 24.0232 91.0687 23.7116 91.3121 23.4649C91.5554 23.2149 91.8687 23.0899 92.2521 23.0899ZM92.2521 23.4099C91.9921 23.4099 91.7737 23.4866 91.5971 23.6399C91.4237 23.7932 91.3204 23.9949 91.2871 24.2449H93.1521C93.1154 23.9782 93.0137 23.7732 92.8471 23.6299C92.6737 23.4832 92.4754 23.4099 92.2521 23.4099ZM93.6193 23.1499H95.7193V23.4699H94.8343V25.6499H94.5043V23.4699H93.6193V23.1499ZM97.1788 23.0899C97.5522 23.0899 97.8505 23.2216 98.0738 23.4849C98.3038 23.7449 98.4188 24.0532 98.4188 24.4099C98.4188 24.4266 98.4155 24.4782 98.4088 24.5649H96.2138C96.2472 24.8149 96.3538 25.0149 96.5338 25.1649C96.7138 25.3149 96.9388 25.3899 97.2088 25.3899C97.5888 25.3899 97.8572 25.2482 98.0138 24.9649L98.3038 25.1349C98.1938 25.3149 98.0422 25.4566 97.8488 25.5599C97.6588 25.6599 97.4438 25.7099 97.2038 25.7099C96.8105 25.7099 96.4905 25.5866 96.2438 25.3399C95.9972 25.0932 95.8738 24.7799 95.8738 24.3999C95.8738 24.0232 95.9955 23.7116 96.2388 23.4649C96.4822 23.2149 96.7955 23.0899 97.1788 23.0899ZM97.1788 23.4099C96.9188 23.4099 96.7005 23.4866 96.5238 23.6399C96.3505 23.7932 96.2472 23.9949 96.2138 24.2449H98.0788C98.0422 23.9782 97.9405 23.7732 97.7738 23.6299C97.6005 23.4832 97.4022 23.4099 97.1788 23.4099ZM100.284 23.0899C100.64 23.0899 100.944 23.2166 101.194 23.4699C101.447 23.7232 101.574 24.0332 101.574 24.3999C101.574 24.7666 101.447 25.0766 101.194 25.3299C100.944 25.5832 100.64 25.7099 100.284 25.7099C99.8404 25.7099 99.5038 25.5266 99.2738 25.1599V26.6499H98.9438V23.1499H99.2738V23.6399C99.5038 23.2732 99.8404 23.0899 100.284 23.0899ZM99.5588 25.1049C99.7488 25.2949 99.9821 25.3899 100.259 25.3899C100.535 25.3899 100.769 25.2949 100.959 25.1049C101.149 24.9082 101.244 24.6732 101.244 24.3999C101.244 24.1232 101.149 23.8899 100.959 23.6999C100.769 23.5066 100.535 23.4099 100.259 23.4099C99.9821 23.4099 99.7488 23.5066 99.5588 23.6999C99.3688 23.8899 99.2738 24.1232 99.2738 24.3999C99.2738 24.6732 99.3688 24.9082 99.5588 25.1049ZM103.232 25.7099C102.876 25.7099 102.576 25.5916 102.332 25.3549C102.092 25.1149 101.972 24.8049 101.972 24.4249C101.972 23.9982 102.036 23.6716 102.162 23.4449C102.289 23.2149 102.546 23.0066 102.932 22.8199C103.056 22.7632 103.152 22.7199 103.222 22.6899C103.339 22.6432 103.431 22.6032 103.497 22.5699C103.787 22.4366 103.934 22.2716 103.937 22.0749L104.197 22.2249C104.181 22.3082 104.154 22.3832 104.117 22.4499C104.074 22.5232 104.031 22.5816 103.987 22.6249C103.947 22.6682 103.884 22.7149 103.797 22.7649C103.741 22.7982 103.672 22.8349 103.592 22.8749L103.342 22.9799L103.107 23.0799C102.877 23.1799 102.706 23.2849 102.592 23.3949C102.482 23.5016 102.404 23.6416 102.357 23.8149C102.464 23.6716 102.604 23.5632 102.777 23.4899C102.951 23.4132 103.126 23.3749 103.302 23.3749C103.636 23.3749 103.911 23.4849 104.127 23.7049C104.347 23.9216 104.457 24.1999 104.457 24.5399C104.457 24.8766 104.341 25.1566 104.107 25.3799C103.877 25.5999 103.586 25.7099 103.232 25.7099ZM102.582 25.1349C102.756 25.2982 102.972 25.3799 103.232 25.3799C103.492 25.3799 103.706 25.3016 103.872 25.1449C104.042 24.9849 104.127 24.7832 104.127 24.5399C104.127 24.2932 104.047 24.0916 103.887 23.9349C103.731 23.7749 103.521 23.6949 103.257 23.6949C103.021 23.6949 102.806 23.7699 102.612 23.9199C102.419 24.0632 102.322 24.2599 102.322 24.5099C102.322 24.7632 102.409 24.9716 102.582 25.1349ZM105.852 25.2449L106.662 23.1499H107.012L105.942 25.8799C105.842 26.1332 105.702 26.3282 105.522 26.4649C105.345 26.6049 105.148 26.6666 104.932 26.6499V26.3399C105.232 26.3766 105.46 26.2032 105.617 25.8199L105.682 25.6649L104.562 23.1499H104.912L105.852 25.2449ZM108.751 23.0899C109.107 23.0899 109.411 23.2166 109.661 23.4699C109.914 23.7232 110.041 24.0332 110.041 24.3999C110.041 24.7666 109.914 25.0766 109.661 25.3299C109.411 25.5832 109.107 25.7099 108.751 25.7099C108.307 25.7099 107.971 25.5266 107.741 25.1599V26.6499H107.411V23.1499H107.741V23.6399C107.971 23.2732 108.307 23.0899 108.751 23.0899ZM108.026 25.1049C108.216 25.2949 108.449 25.3899 108.726 25.3899C109.002 25.3899 109.236 25.2949 109.426 25.1049C109.616 24.9082 109.711 24.6732 109.711 24.3999C109.711 24.1232 109.616 23.8899 109.426 23.6999C109.236 23.5066 109.002 23.4099 108.726 23.4099C108.449 23.4099 108.216 23.5066 108.026 23.6999C107.836 23.8899 107.741 24.1232 107.741 24.3999C107.741 24.6732 107.836 24.9082 108.026 25.1049ZM110.589 23.1499H112.189V23.4699H110.919V25.6499H110.589V23.1499ZM114.644 23.6399V23.1499H114.974V25.6499H114.644V25.1599C114.414 25.5266 114.077 25.7099 113.634 25.7099C113.277 25.7099 112.972 25.5832 112.719 25.3299C112.469 25.0766 112.344 24.7666 112.344 24.3999C112.344 24.0332 112.469 23.7232 112.719 23.4699C112.972 23.2166 113.277 23.0899 113.634 23.0899C114.077 23.0899 114.414 23.2732 114.644 23.6399ZM112.959 25.1049C113.149 25.2949 113.382 25.3899 113.659 25.3899C113.935 25.3899 114.169 25.2949 114.359 25.1049C114.549 24.9082 114.644 24.6732 114.644 24.3999C114.644 24.1232 114.549 23.8899 114.359 23.6999C114.169 23.5066 113.935 23.4099 113.659 23.4099C113.382 23.4099 113.149 23.5066 112.959 23.6999C112.769 23.8899 112.674 24.1232 112.674 24.3999C112.674 24.6732 112.769 24.9082 112.959 25.1049Z" fill="#818181"/>
<defs>
<clipPath id="clip0">
<rect width="30" height="18.2812" fill="white"/>
</clipPath>
</defs>
</svg>
