<svg width="18" height="19" viewBox="0 0 18 19" fill="none" xmlns="http://www.w3.org/2000/svg">
<path d="M18 7.09104V2.16918C18 1.19993 17.2114 0.411377 16.2422 0.411377H11.3203C10.4715 0.411377 9.76124 1.01624 9.5979 1.81762H8.40206C8.23876 1.01624 7.52854 0.411377 6.67966 0.411377H1.75781C0.788552 0.411377 0 1.19993 0 2.16918V7.09104C0 7.93992 0.604861 8.65014 1.40624 8.81348V10.0093C0.604861 10.1726 0 10.8828 0 11.7318V16.6536C0 17.6229 0.788552 18.4114 1.75781 18.4114H6.67966C7.52854 18.4114 8.23876 17.8066 8.4021 17.0052H9.59793C9.76127 17.8066 10.4715 18.4114 11.3204 18.4114H16.2422C17.2114 18.4114 18 17.6229 18 16.6536V11.7318C18 10.8829 17.3951 10.1726 16.5938 10.0093V8.81348C17.3951 8.65014 18 7.93992 18 7.09104ZM11.3203 1.1145H16.2422C16.8237 1.1145 17.2968 1.58763 17.2968 2.16918V7.09104C17.2968 7.67259 16.8237 8.14572 16.2422 8.14572H11.3203C10.7388 8.14572 10.2657 7.67259 10.2657 7.09104V2.16918C10.2657 1.58763 10.7388 1.1145 11.3203 1.1145ZM0.703122 7.09104V2.16918C0.703122 1.58763 1.17625 1.1145 1.75781 1.1145H6.67966C7.26121 1.1145 7.73434 1.58763 7.73434 2.16918V7.09104C7.73434 7.67259 7.26121 8.14572 6.67966 8.14572H1.75781C1.17625 8.14572 0.703122 7.67259 0.703122 7.09104ZM6.67966 17.7083H1.75781C1.17625 17.7083 0.703122 17.2351 0.703122 16.6536V11.7317C0.703122 11.1502 1.17625 10.677 1.75781 10.677H2.63657C2.83073 10.677 2.98813 10.5196 2.98813 10.3255C2.98813 10.1313 2.83073 9.97391 2.63657 9.97391H2.10937V8.84884H6.67966C7.64892 8.84884 8.43747 8.06029 8.43747 7.09104V2.52074H9.56253V7.09104C9.56253 8.06029 10.3511 8.84884 11.3203 8.84884H15.8906V9.97391H11.3203C10.3511 9.97391 9.56253 10.7625 9.56253 11.7317V16.302H8.43747V11.7317C8.43747 10.7625 7.64892 9.97391 6.67966 9.97391H5.80065C5.60649 9.97391 5.44909 10.1313 5.44909 10.3255C5.44909 10.5196 5.60649 10.677 5.80065 10.677H6.67966C7.26121 10.677 7.73434 11.1502 7.73434 11.7317V16.6536C7.73434 17.2351 7.26121 17.7083 6.67966 17.7083ZM17.2968 11.7317V16.6536C17.2968 17.2351 16.8237 17.7083 16.2422 17.7083H11.3203C10.7388 17.7083 10.2657 17.2351 10.2657 16.6536V11.7317C10.2657 11.1502 10.7388 10.677 11.3203 10.677H16.2422C16.8237 10.677 17.2968 11.1502 17.2968 11.7317Z" fill="black"/>
<path d="M2.8125 5.68481H3.16406V6.03638C3.16406 6.61793 3.6372 7.09106 4.21875 7.09106C4.8003 7.09106 5.27344 6.61793 5.27344 6.03638V5.68481H5.625C6.20655 5.68481 6.67969 5.21168 6.67969 4.63013C6.67969 4.04857 6.20655 3.57544 5.625 3.57544H5.27344V3.22388C5.27344 2.64232 4.8003 2.16919 4.21875 2.16919C3.6372 2.16919 3.16406 2.64232 3.16406 3.22388V3.57544H2.8125C2.23095 3.57544 1.75781 4.04857 1.75781 4.63013C1.75781 5.21168 2.23095 5.68481 2.8125 5.68481ZM2.8125 4.27856H3.51562C3.70979 4.27856 3.86719 4.12117 3.86719 3.927V3.22388C3.86719 3.03003 4.0249 2.87231 4.21875 2.87231C4.4126 2.87231 4.57031 3.03003 4.57031 3.22388V3.927C4.57031 4.12117 4.72771 4.27856 4.92188 4.27856H5.625C5.81885 4.27856 5.97656 4.43628 5.97656 4.63013C5.97656 4.82398 5.81885 4.98169 5.625 4.98169H4.92188C4.72771 4.98169 4.57031 5.13908 4.57031 5.33325V6.03638C4.57031 6.23023 4.4126 6.38794 4.21875 6.38794C4.0249 6.38794 3.86719 6.23023 3.86719 6.03638V5.33325C3.86719 5.13908 3.70979 4.98169 3.51562 4.98169H2.8125C2.61865 4.98169 2.46094 4.82398 2.46094 4.63013C2.46094 4.43628 2.61865 4.27856 2.8125 4.27856Z" fill="black"/>
<path d="M5.625 13.138H2.8125C2.23095 13.138 1.75781 13.6111 1.75781 14.1927C1.75781 14.7742 2.23095 15.2473 2.8125 15.2473H5.625C6.20655 15.2473 6.67969 14.7742 6.67969 14.1927C6.67969 13.6111 6.20655 13.138 5.625 13.138ZM5.625 14.5442H2.8125C2.61865 14.5442 2.46094 14.3865 2.46094 14.1927C2.46094 13.9988 2.61865 13.8411 2.8125 13.8411H5.625C5.81885 13.8411 5.97656 13.9988 5.97656 14.1927C5.97656 14.3865 5.81885 14.5442 5.625 14.5442Z" fill="black"/>
<path d="M15.5214 12.4525C15.1101 12.0413 14.441 12.0413 14.0298 12.4525L13.7812 12.7011L13.5327 12.4525C13.1214 12.0413 12.4523 12.0413 12.0411 12.4525C11.6299 12.8637 11.6299 13.5328 12.0411 13.944L12.2897 14.1926L12.0411 14.4412C11.6299 14.8524 11.6299 15.5215 12.0411 15.9328C12.2467 16.1384 12.5167 16.2412 12.7869 16.2412C13.0569 16.2412 13.3271 16.1383 13.5327 15.9328L13.7812 15.6842L14.0298 15.9328C14.441 16.344 15.1101 16.344 15.5214 15.9328C15.9326 15.5215 15.9326 14.8525 15.5214 14.4412L15.2728 14.1926L15.5214 13.944C15.9326 13.5328 15.9326 12.8637 15.5214 12.4525ZM14.527 14.4412L15.0242 14.9384C15.1612 15.0755 15.1612 15.2985 15.0242 15.4356C14.8872 15.5727 14.6641 15.5728 14.527 15.4356L14.0298 14.9384C13.9639 14.8725 13.8744 14.8355 13.7812 14.8355C13.688 14.8355 13.5986 14.8725 13.5326 14.9384L13.0354 15.4356C12.969 15.502 12.8808 15.5386 12.7868 15.5386C12.6929 15.5386 12.6046 15.502 12.5383 15.4356C12.4012 15.2985 12.4012 15.0755 12.5383 14.9384L13.0354 14.4413C13.1727 14.304 13.1727 14.0814 13.0354 13.9441L12.5383 13.4469C12.4719 13.3805 12.4353 13.2922 12.4353 13.1983C12.4353 13.1044 12.4719 13.0161 12.5383 12.9497C12.6068 12.8812 12.6968 12.8469 12.7868 12.8469C12.8769 12.8469 12.9669 12.8812 13.0354 12.9497L13.5326 13.4469C13.5986 13.5128 13.688 13.5499 13.7812 13.5499C13.8744 13.5499 13.9639 13.5128 14.0298 13.4469L14.527 12.9497C14.664 12.8127 14.8871 12.8126 15.0242 12.9497C15.1612 13.0868 15.1612 13.3098 15.0242 13.4469L14.527 13.9441C14.3897 14.0813 14.3897 14.3039 14.527 14.4412Z" fill="black"/>
<path d="M12.7869 6.67866C13.0569 6.67866 13.327 6.57583 13.5326 6.37027L15.5213 4.38155C15.9326 3.97033 15.9326 3.3012 15.5213 2.88998C15.1101 2.47875 14.441 2.47879 14.0298 2.88998L12.0411 4.87873C11.6299 5.28995 11.6299 5.95908 12.0411 6.37031C12.2467 6.5759 12.5168 6.6787 12.7869 6.67866ZM12.5383 5.37588L14.527 3.38716C14.5955 3.3186 14.6855 3.28436 14.7756 3.28436C14.8656 3.28436 14.9556 3.31864 15.0241 3.38716C15.1612 3.52423 15.1612 3.74726 15.0241 3.88437L13.0354 5.87309C12.969 5.9395 12.8808 5.97606 12.7868 5.97606C12.6929 5.97606 12.6046 5.9395 12.5383 5.87309C12.4012 5.73598 12.4012 5.51295 12.5383 5.37588Z" fill="black"/>
<path d="M4.21861 10.677C4.41278 10.677 4.57018 10.5196 4.57018 10.3255C4.57018 10.1313 4.41278 9.97391 4.21861 9.97391H4.21837C4.0242 9.97391 3.86694 10.1313 3.86694 10.3255C3.86694 10.5196 4.02444 10.677 4.21861 10.677Z" fill="black"/>
</svg>
